PathFileType	4	(X/Y/Z)	./resultDataOpenSim/trcMotMarkerGrf/sub09/qtm-04-09.trc
DataRate	CameraRate	NumFrames	NumMarkers	Units	OrigDataRate	OrigDataStartFrame	OrigNumFrames
250.000000	250.000000	12	24	m	250.000000	255	508
Frame#	Time	L.Toe.Tip			R.Toe.Tip			L.Ankle.Lat			R.Ankle.Lat			L.Ankle.Med			R.Ankle.Med			L.Heel			R.Heel			L.Knee.Lat			R.Knee.Lat			L.Knee.Med			R.Knee.Med			L.Thigh.Upper			R.Thigh.Upper			L.ASIS			R.ASIS			V.Sacral			L.Acromium			R.Acromium			C7			L.Elbow			R.Elbow			L.Wrist.Lat			R.Wrist.Lat
		X1	Y1	Z1	X2	Y2	Z2	X3	Y3	Z3	X4	Y4	Z4	X5	Y5	Z5	X6	Y6	Z6	X7	Y7	Z7	X8	Y8	Z8	X9	Y9	Z9	X10	Y10	Z10	X11	Y11	Z11	X12	Y12	Z12	X13	Y13	Z13	X14	Y14	Z14	X15	Y15	Z15	X16	Y16	Z16	X17	Y17	Z17	X18	Y18	Z18	X19	Y19	Z19	X20	Y20	Z20	X21	Y21	Z21	X22	Y22	Z22	X23	Y23	Z23	X24	Y24	Z24

255	1.016	0.2181331	-0.034111679	0.015890383	0.5154985	0.12642313	0.13756075	0.071633686	0.016310189	-0.027006993	0.37130962	0.14954916	0.15547488	0.09545917	0.03385428	0.06774401	0.39607095	0.18259032	0.063183434	-0.00027306412	-0.0090450093	0.017658654	0.30474649	0.12892699	0.10022813	0.1668311	0.4211098	-0.085730533	0.52570939	0.56414365	0.201363	0.16759415	0.42252885	0.040562559	0.52969559	0.55411897	0.075956339	0.2304348	0.84105363	-0.13725378	0.24461539	0.85388438	0.23485254	0.32691347	0.91954831	-0.078624751	0.31907149	0.9337513	0.15996584	0.16428525	0.98881577	0.040990154	0.35261292	1.375468	-0.11676475	0.30411862	1.3904707	0.20834799	0.2615276	1.4345133	0.035288389	0.26821986	1.0064299	-0.1886389	0.12638917	1.0717764	0.26706351	0.52460238	0.90973637	-0.18457278	0.21312898	0.81958926	0.31794011
256	1.02	0.21815341	-0.034083112	0.015714906	0.53526508	0.12622866	0.13809011	0.071494307	0.016779338	-0.026422322	0.3903264	0.14563599	0.1551468	0.09589717	0.034327542	0.068104261	0.41463189	0.17925025	0.063059852	-0.00018630916	-0.0083990331	0.018563614	0.32469146	0.12329375	0.099507686	0.16727283	0.42138229	-0.085794907	0.53299895	0.56545163	0.2017068	0.16922484	0.42275178	0.039950154	0.53700549	0.55504696	0.07636313	0.2354206	0.84057816	-0.13724635	0.25046198	0.85361168	0.23519295	0.33231856	0.918757	-0.078690491	0.3249153	0.93321901	0.15991133	0.17004543	0.98826581	0.041063037	0.35832769	1.3749799	-0.11666399	0.31020242	1.3899076	0.20847876	0.26743317	1.4339464	0.03544306	0.27588631	1.0053148	-0.18820236	0.13215954	1.0716955	0.26731567	0.53366891	0.91217723	-0.18345974	0.21707203	0.81922147	0.31888857
257	1.024	0.2181515	-0.034067521	0.01559221	0.55495155	0.12604853	0.13876945	0.071374758	0.017254942	-0.025883201	0.40930839	0.14189763	0.15486872	0.096352792	0.034783807	0.068437291	0.4333261	0.17602814	0.06293807	-9.0862468e-05	-0.0077406682	0.019415842	0.34477032	0.11784331	0.098736401	0.16792319	0.42163024	-0.085880587	0.54013365	0.56659372	0.20204395	0.17043631	0.42319942	0.039486595	0.54424422	0.55574106	0.076756268	0.24046108	0.84003997	-0.13730182	0.25628154	0.85328627	0.23554252	0.33770192	0.9178774	-0.078735858	0.33078041	0.93261341	0.15987827	0.17565519	0.98766663	0.041360948	0.36406698	1.3744363	-0.11655808	0.31629993	1.3892782	0.2086082	0.27335866	1.4333178	0.035592338	0.28354709	1.0041624	-0.1877511	0.13791379	1.0715271	0.26757546	0.54269243	0.91453979	-0.18234935	0.22107223	0.81878726	0.31983146
258	1.028	0.21813788	-0.034066497	0.015516739	0.57458234	0.12590098	0.13956561	0.071283558	0.017737624	-0.025413812	0.42828857	0.13835305	0.15463306	0.096792324	0.035205872	0.068738858	0.45212801	0.1729276	0.062800258	1.7036598e-05	-0.0070727244	0.020193422	0.36501231	0.11258496	0.097938364	0.16875695	0.42185974	-0.08596359	0.54714543	0.56756875	0.2024023	0.17095526	0.42395006	0.039233876	0.55141692	0.55621301	0.077108589	0.24539938	0.83942586	-0.13727088	0.2621004	0.85291443	0.23591099	0.34307244	0.91691296	-0.078773882	0.33666795	0.93193654	0.15986558	0.18119723	0.98703227	0.041787896	0.36982891	1.3738305	-0.11644994	0.32240685	1.388578	0.20873875	0.27930535	1.4326215	0.035734781	0.29118907	1.0029554	-0.18725981	0.14365885	1.0712846	0.26786711	0.55168566	0.91682186	-0.18123176	0.22512188	0.81828858	0.32076423
259	1.032	0.21812025	-0.034077642	0.015470587	0.59416347	0.12584713	0.14044554	0.071228605	0.018225772	-0.025021791	0.44725373	0.13502431	0.15444399	0.09719582	0.035600432	0.069007541	0.47099282	0.16995603	0.062646875	0.00012984878	-0.0063986778	0.020867119	0.38548016	0.10752026	0.09708915	0.16975788	0.42207301	-0.086024091	0.55404128	0.56836396	0.20278987	0.17120351	0.42476906	0.03912125	0.55861608	0.55650839	0.077298401	0.25014862	0.83873473	-0.13707511	0.26792566	0.85250228	0.23629347	0.34840624	0.91587469	-0.078830148	0.3425808	0.93119078	0.15986677	0.18674863	0.98638333	0.04223214	0.37561142	1.3731584	-0.11634449	0.32852096	1.3878087	0.20886882	0.28527682	1.431863	0.035871652	0.29882033	1.0016664	-0.1866829	0.14941451	1.0709776	0.26819326	0.56064344	0.91902185	-0.18011167	0.22922485	0.81772758	0.32168469
260	1.036	0.21810465	-0.034097224	0.015439622	0.61366188	0.12596076	0.14138948	0.071219238	0.018710725	-0.024706451	0.46612784	0.13193083	0.15433294	0.097568755	0.035985335	0.069241198	0.48987064	0.16713191	0.06249741	0.00023878746	-0.0057186219	0.021415308	0.4061662	0.10265682	0.096159747	0.17093989	0.42226334	-0.086060798	0.5607729	0.56894725	0.20316656	0.1718804	0.42527943	0.039114765	0.56600042	0.55668595	0.077153462	0.25474428	0.83797635	-0.13674956	0.27373763	0.85204656	0.23667355	0.35365373	0.91476366	-0.078928715	0.34852193	0.93037487	0.15987255	0.19232583	0.985727	0.042562231	0.3814147	1.372422	-0.11624649	0.3346469	1.3869754	0.20899492	0.29127747	1.4310571	0.03601679	0.30648878	1.0002738	-0.18596779	0.1551947	1.0706071	0.26854606	0.56954739	0.92113907	-0.179008	0.23339434	0.81709957	0.32259143
261	1.04	0.21809656	-0.034122006	0.015417311	0.63302825	0.12626968	0.14238537	0.071261486	0.019185159	-0.024461974	0.48483407	0.12907284	0.15433016	0.097924719	0.036366846	0.069432648	0.50872543	0.16447737	0.062370201	0.00034390872	-0.0050311804	0.021833246	0.42695581	0.098012774	0.095153313	0.17232231	0.42241722	-0.086087624	0.5672957	0.56928997	0.20349758	0.17326091	0.42531642	0.039275944	0.57357185	0.55676134	0.076694909	0.25927659	0.8371661	-0.13637633	0.2795202	0.85154015	0.23704346	0.35877653	0.91357744	-0.079081021	0.35449255	0.92948836	0.1598746	0.19785574	0.98504309	0.042613268	0.38724309	1.3716269	-0.11615883	0.34079415	1.3860816	0.20911959	0.29730442	1.4302148	0.036191411	0.31425428	0.99877578	-0.18508462	0.16100607	1.0701673	0.26891712	0.57838701	0.92317315	-0.17793409	0.23765784	0.81639821	0.32348535
262	1.044	0.21809898	-0.034149911	0.015400795	0.6522382	0.12674559	0.14340611	0.071352649	0.019652006	-0.024271153	0.50337045	0.12642213	0.15441704	0.098273923	0.036736939	0.069571831	0.527537	0.16201028	0.062263562	0.00045288664	-0.004335884	0.022130239	0.44769551	0.093611219	0.094130357	0.17391119	0.42252183	-0.086121444	0.57360685	0.5693802	0.20378658	0.17514703	0.42500363	0.039614689	0.58105058	0.55668376	0.076234502	0.26381038	0.83631918	-0.13602056	0.28528705	0.85098252	0.23741182	0.3638057	0.91233727	-0.079251046	0.36049185	0.92853576	0.15986965	0.20324516	0.98431035	0.042289257	0.39310363	1.3707797	-0.11608105	0.34696957	1.38513	0.20924944	0.30334725	1.429333	0.036417492	0.32212049	0.9972032	-0.18406949	0.16685689	1.0696532	0.26930309	0.58716608	0.92512231	-0.17688809	0.24205072	0.81562891	0.32437201
263	1.048	0.21811127	-0.034179832	0.015386212	0.67131033	0.12735305	0.144391	0.071484268	0.020119753	-0.024114524	0.52182592	0.12393652	0.15452236	0.098621793	0.037087198	0.069654054	0.54628041	0.15974933	0.062163127	0.00057390464	-0.003630094	0.02232043	0.46826168	0.08947141	0.093197641	0.17570723	0.42257246	-0.086171231	0.57972514	0.56921401	0.20405371	0.17724976	0.42456756	0.039993182	0.58812206	0.55639404	0.076084665	0.26835842	0.83543728	-0.13572557	0.29107213	0.85038012	0.23779126	0.36884021	0.91108667	-0.079351522	0.36651855	0.92752367	0.15985834	0.2085449	0.98353568	0.041793836	0.3990023	1.3698832	-0.11600995	0.35317186	1.3841231	0.20938681	0.30940033	1.4284076	0.03670672	0.33002296	0.99561662	-0.18303852	0.1727422	1.0690671	0.26971582	0.59589212	0.92698233	-0.17586047	0.24659086	0.81481271	0.32526209
264	1.052	0.21813066	-0.034211286	0.015368425	0.69027876	0.12808182	0.14526974	0.071653115	0.02058987	-0.023997866	0.54033655	0.12156105	0.15455467	0.098968951	0.037415249	0.069680593	0.56491386	0.15771665	0.062063262	0.00071008808	-0.0029084845	0.022411293	0.48859194	0.085608948	0.092441098	0.17771668	0.42257341	-0.086234909	0.58566519	0.56878931	0.20431008	0.17936206	0.42419916	0.04020494	0.59472199	0.55588131	0.076288538	0.27289757	0.83449743	-0.13553697	0.2969002	0.84973883	0.23818362	0.3739357	0.90984174	-0.079340093	0.37257144	0.92645736	0.15983805	0.21395077	0.98274539	0.041572503	0.40494163	1.3689363	-0.11594253	0.35939276	1.3830636	0.20953123	0.3154741	1.4274552	0.037034987	0.33789071	0.99406169	-0.18211856	0.17861967	1.0684224	0.27019592	0.60456883	0.92874775	-0.1748423	0.25125703	0.81396839	0.32616332
265	1.056	0.21815478	-0.034244125	0.015343576	0.70913828	0.12893218	0.14600892	0.071866252	0.021054452	-0.023956058	0.55903755	0.11920293	0.15441897	0.099314573	0.037723203	0.069648488	0.58337825	0.15592135	0.061979209	0.00085948522	-0.0021666823	0.022399959	0.50868304	0.082043705	0.091880208	0.17994566	0.42253165	-0.086305519	0.59143869	0.56811408	0.20455844	0.18136012	0.42400002	0.040118964	0.60098709	0.55516989	0.076701996	0.27740097	0.83346774	-0.1354843	0.30277628	0.84905834	0.23858007	0.37904149	0.90855911	-0.079299813	0.37864415	0.92534232	0.15979948	0.21952165	0.98195106	0.041771652	0.41092364	1.3679401	-0.11587494	0.36562226	1.3819551	0.20968219	0.32159339	1.4264974	0.037322264	0.34569555	0.99253464	-0.1813598	0.18442038	1.0677416	0.27080226	0.61319352	0.93041489	-0.17383106	0.25600687	0.8130954	0.32707208
266	1.06	0.21818292	-0.034278452	0.015310853	0.72783781	0.12988848	0.14660405	0.072132089	0.021508808	-0.024016578	0.57803311	0.11675063	0.15403634	0.099661859	0.038020001	0.069545869	0.60160319	0.15435078	0.061939244	0.0010202733	-0.0014011279	0.022282563	0.52854359	0.078800548	0.091495835	0.1823869	0.42245066	-0.08637901	0.59707029	0.56721593	0.20480394	0.18326742	0.4239492	0.039767912	0.60705707	0.55428656	0.077182704	0.28186362	0.83236068	-0.13549283	0.3086967	0.84833284	0.23897115	0.38409813	0.90719243	-0.079357604	0.3847252	0.92418758	0.15973178	0.2250732	0.9811377	0.042042321	0.41695396	1.3668988	-0.11579771	0.37185311	1.380801	0.20983464	0.32779046	1.4255315	0.037472539	0.35345415	0.99101204	-0.18072732	0.19010326	1.0670419	0.2715517	0.6217593	0.9319841	-0.17283127	0.26081182	0.8121818	0.32797697
